ply
format ascii 1.0
comment Created by CloudCompare v2.13.1 (Kharkiv - Mar 20 2024)
comment Created 2024-04-20T20:04:39
obj_info Generated by CloudCompare!
element vertex 8
property float x
property float y
property float z
element face 12
property list uchar int vertex_indices
end_header
0.000000 0.000000 100.000000 
0.000000 100.000000 100.000000 
0.000000 0.000000 0.000000 
0.000000 100.000000 0.000000 
100.000000 0.000000 100.000000 
100.000000 0.000000 0.000000 
100.000000 100.000000 100.000000 
100.000000 100.000000 0.000000 
3 0 1 2 
3 2 1 3 
3 4 0 5 
3 5 0 2 
3 6 4 7 
3 7 4 5 
3 1 6 3 
3 3 6 7 
3 4 6 0 
3 0 6 1 
3 7 5 3 
3 3 5 2 
